<?xml version="1.0" standalone="no"?><!DOCTYPE svg PUBLIC "-//W3C//DTD SVG 1.1//EN" "http://www.w3.org/Graphics/SVG/1.1/DTD/svg11.dtd"><svg t="1684115438269" class="icon" viewBox="0 0 1024 1024" version="1.1" xmlns="http://www.w3.org/2000/svg" p-id="8977" xmlns:xlink="http://www.w3.org/1999/xlink" width="200" height="200"><path d="M227.328 975.872H92.16c-12.288 0-23.552-10.24-23.552-23.552V109.568c0-11.264 9.216-21.504 21.504-21.504h137.216c12.288 0 23.552 10.24 23.552 23.552v841.728c0 12.288-10.24 22.528-23.552 22.528z" fill="#DD365E" p-id="8978"></path><path d="M230.4 975.872c10.24 3.072 20.48-9.216 20.48-20.48V108.544c0-11.264-9.216-20.48-20.48-20.48H90.112c-11.264 0-20.48 9.216-20.48 20.48l54.272 756.736s-5.12 74.752 106.496 110.592z" fill="#FC6B79" p-id="8979"></path><path d="M206.848 100.352c17.408 0 30.72 13.312 30.72 30.72v801.792c0 17.408-13.312 30.72-30.72 30.72H112.64c-17.408 0-30.72-13.312-30.72-30.72V131.072c0-17.408 13.312-30.72 30.72-30.72h94.208m0-30.72H112.64c-33.792 0-61.44 27.648-61.44 61.44v801.792c0 33.792 27.648 61.44 61.44 61.44h94.208c33.792 0 61.44-27.648 61.44-61.44V131.072c0-33.792-26.624-61.44-61.44-61.44z" fill="#330867" p-id="8980"></path><path d="M490.496 985.088H355.328c-12.288 0-23.552-10.24-23.552-23.552V118.784c0-11.264 9.216-21.504 21.504-21.504h137.216c12.288 0 23.552 10.24 23.552 23.552V962.56c-1.024 12.288-11.264 22.528-23.552 22.528z" fill="#F9B52B" p-id="8981"></path><path d="M492.544 985.088c10.24 3.072 20.48-9.216 20.48-20.48V117.76c0-11.264-9.216-20.48-20.48-20.48H352.256c-11.264 0-20.48 9.216-20.48 20.48l54.272 756.736s-4.096 74.752 106.496 110.592z" fill="#FFE08A" p-id="8982"></path><path d="M470.016 109.568c17.408 0 30.72 13.312 30.72 30.72V942.08c0 17.408-13.312 30.72-30.72 30.72h-94.208c-17.408 0-30.72-13.312-30.72-30.72V140.288c0-17.408 13.312-30.72 30.72-30.72h94.208m0-30.72h-94.208c-33.792 0-61.44 27.648-61.44 61.44V942.08c0 33.792 27.648 61.44 61.44 61.44h94.208c33.792 0 61.44-27.648 61.44-61.44V140.288c0-33.792-27.648-61.44-61.44-61.44z" fill="#330867" p-id="8983"></path><path d="M314.368 328.704h217.088v27.648H314.368z" fill="#330867" p-id="8984"></path><path d="M953.344 931.84l-130.048 36.864c-12.288 3.072-24.576-3.072-28.672-15.36L562.176 141.312c-3.072-11.264 3.072-22.528 14.336-25.6l132.096-37.888c12.288-3.072 24.576 4.096 28.672 15.36l232.448 808.96c3.072 13.312-4.096 25.6-16.384 29.696z" fill="#66C1FF" p-id="8985"></path><path d="M714.752 89.088c4.096 0 8.192 2.048 10.24 7.168l232.448 809.984c2.048 5.12-2.048 11.264-7.168 12.288l-130.048 36.864h-3.072c-4.096 0-8.192-2.048-10.24-7.168L574.464 140.288c-1.024-3.072 0-6.144 1.024-8.192 1.024-1.024 3.072-4.096 6.144-5.12l130.048-36.864c1.024 0 2.048-1.024 3.072-1.024m0-30.72c-4.096 0-7.168 1.024-11.264 2.048L573.44 97.28c-21.504 6.144-34.816 28.672-27.648 50.176L778.24 957.44c5.12 18.432 21.504 29.696 38.912 29.696 4.096 0 7.168-1.024 11.264-2.048l130.048-36.864c21.504-6.144 34.816-28.672 27.648-50.176L754.688 88.064c-5.12-17.408-21.504-29.696-39.936-29.696z" fill="#330867" p-id="8986"></path><path d="M603.5456 348.02688l208.6912-59.84256 7.6288 26.5728-208.6912 59.8528z" fill="#330867" p-id="8987"></path><path d="M591.872 103.424l93.184-26.624 35.84 124.928-51.2-25.6c-1.024-1.024-3.072-2.048-4.096-2.048-3.072 0-7.168 2.048-9.216 5.12l-29.696 48.128-34.816-123.904z" fill="#99CAFF" p-id="8988"></path><path d="M677.888 89.088l26.624 92.16-29.696-15.36c-3.072-1.024-6.144-2.048-9.216-2.048-7.168 0-13.312 3.072-17.408 10.24l-17.408 28.672-26.624-92.16 73.728-21.504m14.336-25.6L578.56 96.256 618.496 235.52c1.024 4.096 4.096 6.144 8.192 6.144 3.072 0 5.12-1.024 7.168-4.096L665.6 184.32l55.296 27.648c1.024 1.024 2.048 1.024 4.096 1.024 5.12 0 9.216-5.12 8.192-10.24l-40.96-139.264z" fill="#330867" p-id="8989"></path></svg>