<?xml version="1.0" standalone="no"?><!DOCTYPE svg PUBLIC "-//W3C//DTD SVG 1.1//EN" "http://www.w3.org/Graphics/SVG/1.1/DTD/svg11.dtd"><svg t="1684473901249" class="icon" viewBox="0 0 1024 1024" version="1.1" xmlns="http://www.w3.org/2000/svg" p-id="7971" xmlns:xlink="http://www.w3.org/1999/xlink" width="200" height="200"><path d="M0 512c0 281.6 230.4 512 512 512s512-230.4 512-512S793.6 0 512 0 0 230.4 0 512z" fill="#EDF3FF" p-id="7972"></path><path d="M512 1024c185.6 0 348.8-99.2 438.4-249.6-25.6-38.4-204.8-99.2-272-99.2-137.6 240-323.2 41.6-320 3.2-96-6.4-211.2 64-278.4 108.8C169.6 928 329.6 1024 512 1024z" fill="#363D54" p-id="7973"></path><path d="M358.4 688c22.4 54.4 192 211.2 320-12.8h3.2c-25.6-22.4-41.6-60.8-35.2-131.2-64 99.2-185.6 105.6-249.6 3.2 3.2 32 3.2 80-38.4 140.8z" fill="#EDE7E6" p-id="7974"></path><path d="M393.6 553.6c6.4 19.2 153.6 156.8 284.8 124.8-38.4-48-25.6-121.6-22.4-166.4 12.8-32-259.2 16-262.4 41.6z" fill="#E3DCDB" p-id="7975"></path><path d="M688 390.4c0 44.8-9.6 83.2-22.4 118.4 73.6-22.4 89.6-188.8 22.4-118.4z" fill="#EFE7E6" p-id="7976"></path><path d="M649.6 281.6c-144 32-204.8-35.2-233.6-54.4-48 38.4-35.2 124.8-51.2 140.8-3.2-3.2-6.4-6.4-6.4-9.6-12.8 361.6 332.8 336 329.6 19.2-32-44.8-25.6-48-38.4-96z" fill="#F7EDEB" p-id="7977"></path><path d="M416 230.4c28.8 19.2 89.6 86.4 233.6 54.4 12.8 48 6.4 48 38.4 99.2 25.6 9.6 96-233.6-112-265.6-243.2-38.4-275.2 176-211.2 252.8 16-16 3.2-105.6 51.2-140.8z" fill="#363D54" p-id="7978"></path></svg>