<?xml version="1.0" standalone="no"?><!DOCTYPE svg PUBLIC "-//W3C//DTD SVG 1.1//EN" "http://www.w3.org/Graphics/SVG/1.1/DTD/svg11.dtd"><svg t="1684722599680" class="icon" viewBox="0 0 1024 1024" version="1.1" xmlns="http://www.w3.org/2000/svg" p-id="5204" xmlns:xlink="http://www.w3.org/1999/xlink" width="200" height="200"><path d="M24.404171 512.02438a487.595829 487.595829 0 1 0 487.595829-487.595829 487.595829 487.595829 0 0 0-487.595829 487.595829" fill="#D4E5FF" p-id="5205"></path><path d="M818.697776 870.212276c-43.152231-26.86653-196.159802-21.990572-209.666206-66.410552a170.317223 170.317223 0 0 1-5.89991-46.906719 562.734346 562.734346 0 0 1 5.704872-81.087186l-96.592734-29.25575-96.592734 29.25575a512.950812 512.950812 0 0 1 6.046189 82.598733 178.947669 178.947669 0 0 1-5.89991 45.395172c-13.750202 44.41998-166.709014 39.544022-209.666206 66.410552a90.253988 90.253988 0 0 0-13.603924 11.263463 486.620637 486.620637 0 0 0 319.228989 118.14447 488.912338 488.912338 0 0 0 319.521547-118.14447 44.907576 44.907576 0 0 0-12.775011-11.214704" fill="#FCCCA7" p-id="5206"></path><path d="M512.243798 646.552069l-101.127375 27.354126a479.940574 479.940574 0 0 1 8.045331 85.816866c18.089805 18.528641 91.082901 21.356697 92.058093 21.356697s75.479834-3.705728 94.105995-22.721966a538.452074 538.452074 0 0 1 7.557735-83.964001z" fill="#EFAD7D" p-id="5207"></path><path d="M512.975192 999.620209h-0.975192A482.134755 482.134755 0 0 1 193.99 879.03776 52.075235 52.075235 0 0 1 206.569973 867.676777 286.267511 286.267511 0 0 1 298.14047 844.223418C352.068568 835.495453 407.898291 826.47493 416.13866 799.803438c0-0.292557 0-0.390077 0.341317-0.390077s1.609066 2.779296 3.120613 7.02138C425.793057 823.793153 440.177134 864.312366 476.795581 864.312366l36.325889 135.307843 36.27713-135.307843c36.033332 0 51.685158-38.56883 58.5115-55.049569 1.609066-3.900767 2.633017-6.485025 3.218132-6.485025s0.243798 0 0.341317 0.487596c8.24037 26.622732 63.387458 34.668063 117.022999 42.469597a280.465121 280.465121 0 0 1 91.277939 22.039331 95.422504 95.422504 0 0 1 12.092377 9.751917 483.646303 483.646303 0 0 1-145.449836 89.425075 472.626637 472.626637 0 0 1-173.437836 32.668921z" fill="#0076FF" p-id="5208"></path><path d="M283.268797 428.938051c-29.743346 7.508976-22.721966 45.931527-22.721966 60.413123a124.044379 124.044379 0 0 0 41.104328 70.750155c42.225799 14.04276 42.225799-39.007666 42.225799-39.007667V459.41279c0.536355 0-30.864816-37.983715-60.608161-30.474739" fill="#FCCCA7" p-id="5209"></path><path d="M757.45574 428.938051c-29.743346-7.460216-60.510642 29.987143-60.510642 29.987143v61.680872s0 54.757012 42.128279 39.007667a129.505452 129.505452 0 0 0 41.591925-70.701395c-0.536355-14.091519 6.485025-52.465311-23.209562-59.974287" fill="#FBC69A" p-id="5210"></path><path d="M639.945145 218.247893a214.542165 214.542165 0 0 0-256.572925 0c-71.188991 59.047855-73.139374 123.264226-73.139374 218.004095a655.475073 655.475073 0 0 0 6.289986 120.972525 327.371839 327.371839 0 0 0 27.841722 87.864768 585.114995 585.114995 0 0 0 72.359221 63.875054 122.77663 122.77663 0 0 0 93.228323 38.422551h4.875958a119.851055 119.851055 0 0 0 92.838246-38.422551 626.268082 626.268082 0 0 0 72.359221-63.875054 327.371839 327.371839 0 0 0 27.695443-87.767249v-1.462787a682.63416 682.63416 0 0 0 5.85115-119.558497c-0.487596-94.593591-2.437979-158.95624-73.822009-218.004095" fill="#FCCCA7" p-id="5211"></path><path d="M640.042665 218.052855a201.962192 201.962192 0 0 0-128.042665-42.323318v571.657349h2.925575a119.607257 119.607257 0 0 0 93.130803-38.471311 626.365602 626.365602 0 0 0 72.261702-63.923813 328.44455 328.44455 0 0 0 27.646684-87.767249v-1.657826a685.267178 685.267178 0 0 0 5.80239-119.704776c-0.487596-94.349793-2.437979-158.663683-73.724489-217.809056" fill="#FBC69A" p-id="5212"></path><path d="M419.503071 444.784915a24.964906 24.964906 0 0 0-25.208704 25.208704 24.964906 24.964906 0 0 0 25.208704 25.208705 24.964906 24.964906 0 0 0 25.208705-25.208705 25.306224 25.306224 0 0 0-25.208705-25.208704" fill="#683C11" p-id="5213"></path><path d="M596.012761 394.318747a65.874196 65.874196 0 0 0-49.490976 27.159087c-6.875101 8.094091 28.378077-5.704871 51.295081-7.313937a199.036617 199.036617 0 0 1 65.532879 13.798962 110.537974 110.537974 0 0 0-67.336984-33.644112" fill="#3B2314" p-id="5214"></path><path d="M604.448169 444.784915a24.964906 24.964906 0 0 0-25.208704 25.208704 24.964906 24.964906 0 0 0 25.208704 25.208705 24.964906 24.964906 0 0 0 25.208704-25.208705 25.306224 25.306224 0 0 0-25.208704-25.208704" fill="#432918" p-id="5215"></path><path d="M411.213942 394.318747a110.537974 110.537974 0 0 0-67.336984 33.644112 191.868959 191.868959 0 0 1 65.48412-13.408885c23.4046 1.657826 58.218942 15.408028 51.538879 7.313937a67.336984 67.336984 0 0 0-49.686015-27.549164" fill="#3B2314" p-id="5216"></path><path d="M419.503071 444.784915a24.964906 24.964906 0 0 0-25.208704 25.208704 24.964906 24.964906 0 0 0 25.208704 25.208705 24.964906 24.964906 0 0 0 25.208705-25.208705 24.964906 24.964906 0 0 0-25.208705-25.208704" fill="#432918" p-id="5217"></path><path d="M511.268606 614.321985l-38.715109-0.487596-27.792962-0.926432v2.828056l33.254036 25.598781 69.141088 5.217275 32.132565-30.816056-24.331031-2.34046z" fill="#FFFFFF" p-id="5218"></path><path d="M511.707443 615.394695l-46.321604-2.486738-3.803248 1.462787s-1.901624 15.359269 52.026475 15.359269c54.854531-0.487596 48.759583-14.627875 48.759583-14.627875z" fill="#FFFFFF" p-id="5219"></path><path d="M514.535498 610.713776c-4.583401 0.585115-8.289129-4.63216-19.406314-4.632161-13.847722 0.585115-50.368649 5.217275-50.368649 5.217276s9.264321 10.970906 67.970859 11.556021c63.680015 0.585115 66.556831-9.264321 66.55683-9.264321a275.345365 275.345365 0 0 0-44.37122-6.923861 78.795486 78.795486 0 0 0-20.332746 4.047046" fill="#EDA47E" p-id="5220"></path><path d="M512.487596 647.039665a83.573925 83.573925 0 0 1-60.364364-30.913576l-7.362697-3.218132a81.574782 81.574782 0 0 0 67.727061 50.417408 71.042712 71.042712 0 0 0 66.800628-48.759582l-6.92386 2.633017a75.040998 75.040998 0 0 1-59.876768 29.840865" fill="#EDA47E" p-id="5221"></path><path d="M584.066663 820.672539L511.512404 833.154993 444.760535 815.162707 316.474073 871.138708 314.084853 955.639065a462.240846 462.240846 0 0 0 197.915147 43.883624 467.55564 467.55564 0 0 0 197.427551-43.883624l-1.462787-84.500357z" fill="#0076FF" p-id="5222"></path><path d="M545.449074 991.184801H528.675777C535.35584 991.087282 540.573116 990.843484 545.449074 990.355888v0.828913z m-34.131708 0H496.689491V990.355888c4.485882 0.438836 9.118042 0.731394 15.017952 0.780153z" fill="#30302E" p-id="5223"></path><path d="M501.955526 898.736632l-6.777582 83.622684c8.337889 0.438836 16.139422 0.438836 24.379791 0.438836s17.163373 0 25.988858-0.438836l-8.240369-83.622684z" fill="#30302E" p-id="5224"></path><path d="M503.905909 831.497167s-30.913576 3.169373-38.276272 18.918718c-16.627018 35.204419 23.550879 65.142803 23.550878 65.142803h30.913576s33.205276-27.305366 23.989715-53.635541c-7.899052-21.502976-40.177896-30.42598-40.177897-30.42598" fill="#1D1D1B" p-id="5225"></path><path d="M377.472311 819.502309l67.483263 79.234323 67.044426-65.776678-106.003333-68.751012z" fill="#0076FF" p-id="5226"></path><path d="M512 832.959954l70.11628 65.776678 64.411409-81.721061-24.428551-52.806629z" fill="#0076FF" p-id="5227"></path><path d="M710.890339 332.686634c-0.487596-5.363554-0.975192-10.727108-1.462788-15.115471a261.156326 261.156326 0 0 0-26.573973-112.14704 165.051188 165.051188 0 0 0-133.942574-78.40541 324.007428 324.007428 0 0 0-272.32227 92.106852s28.573116 9.751917 25.598781 115.023856c-0.975192 12.677492-1.950383 27.305366-2.437979 42.908433v1.462788a948.715204 948.715204 0 0 0 3.413171 107.612399c0.487596 5.363554 12.82377 21.454216 16.236941-9.26432a1211.090519 1211.090519 0 0 1 17.748488-122.386553c3.46193-14.627875 24.135994-84.792915 86.158183-72.115424a353.311938 353.311938 0 0 0 83.232608 13.165088c63.046141 1.950383 71.384029-14.140279 105.857054-11.214704a56.853674 56.853674 0 0 1 53.196705 33.644112 741.14566 741.14566 0 0 1 28.08552 158.419885c3.46193 30.718537 15.749345 14.627875 16.236941 9.26432a867.628018 867.628018 0 0 0 0.975192-151.544783z" fill="#3B2314" p-id="5228"></path><path d="M490.155707 450.733584c-6.826342 4.193324 4.875958 25.111185 4.875958 25.111185a28.475596 28.475596 0 0 1 35.740774 1.804105c5.558592 6.143707 7.655255-25.111185 7.655255-25.111185a47.735632 47.735632 0 0 0-48.271987-1.804105" fill="#1D1D1B" p-id="5229"></path><path d="M631.022142 545.668492h-0.828913a108.977668 108.977668 0 0 1-85.280511-29.25575 62.607304 62.607304 0 0 1-15.554306-42.323318l4.875958-17.748488s2.633017-7.07014 16.675777-13.750202a204.253893 204.253893 0 0 1 87.71849-14.140279c56.561116 0.292557 78.502928 11.946098 86.889576 21.698014a16.968335 16.968335 0 0 1 4.875959 11.458502 81.964859 81.964859 0 0 1-19.113757 54.95205 102.395124 102.395124 0 0 1-80.307033 29.25575z m1.657826-107.612399c-58.072663 0-91.375458 12.092377-91.375459 33.156516a59.389172 59.389172 0 0 0 17.163373 42.07952 101.517452 101.517452 0 0 0 74.163326 23.697157 83.915242 83.915242 0 0 0 64.655207-22.526927 57.926384 57.926384 0 0 0 14.627875-39.934098c-0.780153-18.918718-11.068425-36.472168-79.234322-36.472168z m-239.409552 106.929765a103.175277 103.175277 0 0 1-80.69711-29.25575 81.86734 81.86734 0 0 1-19.162516-55.098329 17.017094 17.017094 0 0 1 4.875958-11.409742c8.581687-9.703157 30.523499-21.259178 87.084615-21.259178a204.790248 204.790248 0 0 1 87.767249 14.335317c13.994 6.97262 16.38322 13.945241 16.38322 13.994001l4.875959 17.260892a63.387458 63.387458 0 0 1-15.749346 42.469597 109.611542 109.611542 0 0 1-85.378029 28.963192z m-1.950384-107.904957c-68.165897 0-78.405409 17.309652-79.47812 36.033332a57.682587 57.682587 0 0 0 13.847722 40.080377 82.598733 82.598733 0 0 0 65.240322 23.35584 102.736441 102.736441 0 0 0 74.455883-23.550879 59.194134 59.194134 0 0 0 17.309652-42.274558c0-21.405457-33.254036-33.644112-91.375459-33.644112z" fill="#1D1D1B" p-id="5230"></path><path d="M391.124994 437.861054c-69.238608 0-79.868197 16.675777-80.892148 35.740774-0.487596 11.458502 3.55945 62.412266 80.355793 62.899862s93.082044-40.519213 93.569639-64.801485c0-21.941812-35.399457-33.839151-93.033284-33.839151" fill="#FDD6BA" p-id="5231"></path><path d="M633.508881 437.861054c-57.487548 0-92.643207 11.507262-92.643208 33.058997 0 24.379791 15.554307 65.581639 92.643208 65.581639s80.745869-51.246322 80.209513-62.704823c-0.975192-18.236084-11.019666-35.448217-80.209513-35.935813" fill="#FCD1B0" p-id="5232"></path><path d="M394.294367 469.993619a25.208704 25.208704 0 0 0 50.417409 0 25.208704 25.208704 0 0 0-50.417409 0z" fill="#695447" p-id="5233"></path><path d="M579.239465 469.993619a25.208704 25.208704 0 0 0 50.417408 0 25.208704 25.208704 0 0 0-50.417408 0z" fill="#695447" p-id="5234"></path></svg>